<?xml version="1.0" encoding="UTF-8"?>
<svg width="24px" height="24px" viewBox="0 0 24 24" version="1.1" xmlns="http://www.w3.org/2000/svg" xmlns:xlink="http://www.w3.org/1999/xlink">
    <!-- Generator: Sketch 50.2 (55047) - http://www.bohemiancoding.com/sketch -->
    <title>icon/changing_table</title>
    <desc>Created with Sketch.</desc>
    <defs>
        <path d="M17.9783784,11.9081081 C18.3459459,12.2756757 18.3459459,12.8378378 17.9783784,13.1837838 C17.6108108,13.5297297 17.027027,13.5297297 16.6810811,13.1837838 L14.7351351,11.2378378 L14.7351351,13.1189189 L9.52432432,13.1189189 L9.52432432,11.2162162 L7.55675676,13.2054054 C7.18918919,13.5513514 6.60540541,13.5513514 6.25945946,13.2054054 C5.91351351,12.8378378 5.91351351,12.2540541 6.25945946,11.9081081 L8.96216216,9.20540541 C9.32972973,8.83783784 9.82702703,8.64324324 10.3459459,8.64324324 L13.9567568,8.66486486 C14.4540541,8.66486486 14.9513514,8.85945946 15.3189189,9.22702703 L17.9783784,11.9081081 Z M9.80540541,17.1837838 L11.1243243,18.8054054 C11.4486486,19.172973 11.4054054,19.7567568 11.0162162,20.0810811 C10.6486486,20.4054054 10.0648649,20.3621622 9.74054054,19.972973 L7.83783784,17.7027027 C7.18918919,16.9243243 7.27567568,15.7567568 8.05405405,15.1297297 L9.48108108,13.9189189 L9.48108108,13.9621622 L11.2972973,15.3675676 L9.84864865,16.6 C9.67567568,16.7513514 9.65405405,17.0108108 9.80540541,17.1837838 Z M16.1189189,15.1297297 C16.8972973,15.7783784 16.9837838,16.9243243 16.3351351,17.6810811 L16.0324324,18.027027 L14.4108108,19.9513514 C14.0864865,20.3405405 13.5243243,20.3837838 13.1351351,20.0594595 C12.7459459,19.7351351 12.7027027,19.172973 13.027027,18.7837838 L14.3675676,17.1837838 C14.5189189,17.0108108 14.4972973,16.7513514 14.3243243,16.6 L12.8972973,15.3891892 L14.7351351,13.9621622 L16.1189189,15.1297297 Z M12.1405405,8.01621622 C10.7553507,8.01621622 9.63243243,6.89329797 9.63243243,5.50810811 C9.63243243,4.12291825 10.7553507,3 12.1405405,3 C13.5257304,3 14.6486486,4.12291825 14.6486486,5.50810811 C14.6486486,6.89329797 13.5257304,8.01621622 12.1405405,8.01621622 Z" id="path-1"></path>
    </defs>
    <g id="icon/changing_table" stroke="none" stroke-width="1" fill="none" fill-rule="evenodd">
        <mask id="mask-2" fill="white">
            <use xlink:href="#path-1"></use>
        </mask>
        <use id="Shape" fill="#000000" fill-rule="nonzero" xlink:href="#path-1"></use>
        <g id="color" mask="url(#mask-2)" fill="#333333">
            <g id="colors/dark-grey">
                <rect id="Rectangle-5" x="0" y="0" width="24" height="24"></rect>
            </g>
        </g>
    </g>
</svg>