<?xml version="1.0" encoding="UTF-8"?>
<svg width="24px" height="24px" viewBox="0 0 24 24" version="1.1" xmlns="http://www.w3.org/2000/svg" xmlns:xlink="http://www.w3.org/1999/xlink">
    <!-- Generator: Sketch 50.2 (55047) - http://www.bohemiancoding.com/sketch -->
    <title>icon/unisex</title>
    <desc>Created with Sketch.</desc>
    <defs>
        <path d="M12.6891729,5.03280992 C13.87563,5.03280992 14.5871082,5.98122755 14.8242676,6.69270577 L16.4848235,11.9110927 C16.7956827,13.01285 15.2985864,13.3342692 15.061427,12.3854115 L13.4010912,7.40418399 L12.9267724,7.40418399 L15.7731252,15.9434626 L13.4010912,15.9434626 L13.4010912,22.1104872 C13.4010912,23.2965043 11.7407553,23.2965043 11.7407553,22.1104872 L11.7482353,5.03236992 C11.9779147,5.03236992 12.4522335,5.03236992 12.6891729,5.03280992 Z M9.60588066,5.03236992 C9.60588066,5.03236992 11.0290571,5.03236992 11.2659965,5.03236992 L11.2659965,22.1104872 C11.2659965,23.2965043 9.36850125,23.2965043 9.36850125,22.1104872 L9.36850125,7.40418399 L8.89418244,7.40418399 L8.89418244,12.8599504 C8.89418244,13.808588 7.47100599,13.808588 7.47100599,12.8599504 L7.47100599,7.40440399 C7.47100599,6.21838695 8.41986362,5.03236992 9.60588066,5.03236992 Z M11.5115159,4.55299112 C10.5347183,4.55783111 9.73876033,3.76275309 9.73502033,2.77605556 C9.73898032,1.799478 10.5347183,1.00395999 11.5115159,1 C12.4973334,1.00395999 13.2930714,1.799478 13.2877915,2.77649556 C13.2930714,3.76275309 12.4973334,4.5580511 11.5115159,4.55299112 Z" id="path-1"></path>
    </defs>
    <g id="icon/unisex" stroke="none" stroke-width="1" fill="none" fill-rule="evenodd">
        <mask id="mask-2" fill="white">
            <use xlink:href="#path-1"></use>
        </mask>
        <use id="Shape" fill="#000000" fill-rule="nonzero" xlink:href="#path-1"></use>
        <g id="color" mask="url(#mask-2)" fill="#333333">
            <g id="colors/dark-grey">
                <rect id="Rectangle-5" x="0" y="0" width="24" height="24"></rect>
            </g>
        </g>
    </g>
</svg>